<?xml version="1.0" encoding="utf-8"?>
<!-- Generator: Adobe Illustrator 15.0.0, SVG Export Plug-In . SVG Version: 6.00 Build 0)  -->
<!DOCTYPE svg PUBLIC "-//W3C//DTD SVG 1.1//EN" "http://www.w3.org/Graphics/SVG/1.1/DTD/svg11.dtd">
<svg version="1.1" id="Layer_1" xmlns="http://www.w3.org/2000/svg" xmlns:xlink="http://www.w3.org/1999/xlink" x="0px" y="0px"
	 width="144px" height="72px" viewBox="-20.504 -21.491 144 72" enable-background="new -20.504 -21.491 144 72"
	 xml:space="preserve">
<title>cd-icons-cart-close</title>
<desc>Created with Sketch.</desc>
<g id="Page-1">
	<g id="cd-icons-cart-close" transform="translate(1.000000, 1.000000)">
		<g id="Group" transform="translate(78.000000, 2.000000)">
			<path id="Shape" fill="none" stroke="#C42E2E" stroke-width="4" stroke-linecap="round" stroke-linejoin="round" d="
				M21.996,0.149l-22,22"/>
			<path id="Shape_1_" fill="none" stroke="#C42E2E" stroke-width="4" stroke-linecap="round" stroke-linejoin="round" d="
				M21.996,22.149l-22-22"/>
		</g>
		<path id="Path" fill="none" stroke="#C42E2E" stroke-width="2" d="M-9.608-6.792c2.059,0,9.075,0,9.466,0
			c0.394,0,1.892,0.301,2.296,1.809C2.423-3.982,2.712-2.502,3.028-0.54c23.183,0,35.484,0,36.904,0
			c1.421,0,2.081,0.839,1.985,2.519c-2.113,11.039-3.293,16.979-3.549,17.825c-0.246,0.837-1.052,1.398-2.413,1.69H7.62l0.847,4.878
			c15.827-0.312,24.26-0.312,25.297,0c1.557,0.465,1.848,1.474,2.191,2.582c0.341,1.099-0.634,2.452-0.634,2.452
			s3.584,0.909,3.047,5.042c-0.533,4.124-2.714,4.731-5.245,4.731c-2.531,0-5.262-2.385-5.262-5.094
			c0-2.711,2.525-3.771,0.642-3.771s-16.495-0.367-18.155,0c-1.66,0.367,0.958,1.797,0.958,3.771c0,3.188-2.721,5.094-5.344,5.094
			c-2.62,0-5.123-2.467-5.123-5.094c0-1.748,0.907-3.308,2.718-4.68L-3.104-0.835h-6.503c-1.55-0.175-2.327-0.9-2.327-2.187
			c0-1.282,0-1.691,0-1.226C-11.753-5.945-10.98-6.792-9.608-6.792z"/>
	</g>
</g>
</svg>
