<!--?xml version="1.0" encoding="utf-8"?-->
<!-- Generator: Adobe Illustrator 18.1.1, SVG Export Plug-In . SVG Version: 6.00 Build 0)  -->

<svg version="1.1" id="_x32_" xmlns="http://www.w3.org/2000/svg" xmlns:xlink="http://www.w3.org/1999/xlink" x="0px" y="0px" viewBox="0 0 512 512" style="width: 256px; height: 256px; opacity: 1;" xml:space="preserve">
<style type="text/css">
	.st0{fill:#4B4B4B;}
</style>
<g>
	<path class="st0" d="M182.22,198.58c-4.294,2.358-7.311,5.242-9.246,7.919c-1.943,2.692-2.774,5.198-2.892,6.925
		c-0.111,1.765,0.43,2.684,1.112,2.802c1.469,0.23,2.67-2.127,6.584-5.39c1.943-1.632,4.582-3.485,8.067-5.027
		c1.29-0.571,2.699-1.098,4.212-1.528c-1.275,1.943-2.032,4.271-2.032,6.762c0,6.799,5.502,12.308,12.301,12.308
		c6.792,0,12.301-5.509,12.301-12.308c0-1.72-0.355-3.352-0.993-4.834c3.396,1.557,6.132,3.344,8.342,4.834
		c4.515,3.114,7.051,4.834,8.186,3.893c0.549-0.453,0.571-1.432-0.014-2.914c-0.601-1.483-1.81-3.477-3.878-5.813
		c-2.076-2.306-5.027-4.983-9.239-7.348c-4.174-2.32-9.75-4.308-16.334-4.382C192.111,194.414,186.484,196.238,182.22,198.58z" style="fill: rgb(206, 48, 49);"></path>
	<path class="st0" d="M167.309,177.39c13.598-14.022,33.232-25.025,46.178-27.628C170.764,142.488,175.079,155.056,167.309,177.39z" style="fill: rgb(206, 48, 49);"></path>
	<path class="st0" d="M292.024,211.045c2.21-1.483,4.945-3.27,8.349-4.834c-0.638,1.483-0.994,3.114-0.994,4.834
		c0,6.799,5.502,12.308,12.294,12.308c6.792,0,12.308-5.509,12.308-12.308c0-2.491-0.757-4.819-2.04-6.762
		c1.52,0.43,2.929,0.956,4.219,1.528c3.478,1.542,6.109,3.403,8.067,5.027c3.9,3.263,5.101,5.62,6.584,5.39
		c0.683-0.118,1.216-1.038,1.106-2.802c-0.112-1.727-0.957-4.234-2.9-6.918c-1.928-2.685-4.953-5.568-9.239-7.927
		c-4.256-2.335-9.891-4.167-16.475-4.1c-6.584,0.074-12.16,2.062-16.335,4.39c-4.212,2.357-7.155,5.042-9.231,7.348
		c-2.068,2.328-3.284,4.322-3.878,5.805c-0.594,1.483-0.571,2.462-0.023,2.907C284.98,215.886,287.516,214.159,292.024,211.045z" style="fill: rgb(206, 48, 49);"></path>
	<path class="st0" d="M299.81,147.79c12.946,2.595,31.29,15.578,44.888,29.599C336.927,155.056,342.533,140.516,299.81,147.79z" style="fill: rgb(206, 48, 49);"></path>
	<path class="st0" d="M256.003,283.768c22.008,0,25.247-10.35,25.247-10.35s0,0-7.77-3.886c-7.763-3.885-14.889-0.644-17.477,0.646
		c-2.595-1.29-9.713-4.531-17.484-0.646c-7.77,3.886-7.77,3.886-7.77,3.886S233.989,283.768,256.003,283.768z" style="fill: rgb(206, 48, 49);"></path>
	<path class="st0" d="M247.81,252.634c1.98-0.823,0.742-3.374-5.36-3.048c-6.095,0.326-9.491-4.078-5.991-10.173
		C225.203,249.364,240.722,255.555,247.81,252.634z" style="fill: rgb(206, 48, 49);"></path>
	<path class="st0" d="M258.287,255.288c2.314-0.104,4.004-1.164,5.257-2.64c7.934,2.654,23.742-3.997,11.767-14.57
		c3.818,6.628,0.118,11.433-6.525,11.077c-1.349-0.074-2.424,0.015-3.352,0.156c0.994-2.973,0.912-6.392-0.03-8.594
		c0.327,2.268-2.268,11.33-8.416,11.656c-6.147,0.326-8.742-2.588-8.416-1.29C248.9,252.374,250.843,255.608,258.287,255.288z" style="fill: rgb(206, 48, 49);"></path>
	<path class="st0" d="M482.078,446.409c-0.548-1.52-1.365-2.928-2.344-4.159c-1.097-1.364-2.565-3.426-4.256-5.939
		c-2.951-4.412-6.584-10.27-10.477-16.788c-10.306-17.268-22.452-39.186-29.8-52.8c1.839-16.742,2.113-30.444,2.113-38.608
		c0-1.208-0.008-2.291-0.008-3.248c51.236-52.733,45.69-118.42,43.332-125.478c-1.616-4.865-35.88-11.782-61.172-16.26
		c-0.022-0.052-0.037-0.104-0.059-0.156c-1.379-3.9-3.352-7.163-5.68-9.766c-1.742-1.95-3.678-3.529-5.65-4.753
		c-2.981-1.853-6.035-2.936-8.823-3.559c-1.209-0.274-2.358-0.445-3.456-0.571c1.105-5.546,2.195-13.539,2.195-23.564
		c0-17.187-3.218-40.321-15.008-66.992c-6.406-14.503-15.43-25.655-25.773-34.018c-7.756-6.28-16.238-10.996-24.899-14.547
		c-13.006-5.324-26.426-8.038-38.778-9.447c-5.598-0.638-10.96-1.008-15.987-1.216C273.013,6.399,266.014,0,256.003,0
		c-10.017,0-17.016,6.399-21.547,14.526c-3.796,0.171-7.785,0.415-11.922,0.801c-16.112,1.527-34.456,5.094-51.428,13.829
		c-8.483,4.367-16.602,10.046-23.809,17.395c-7.199,7.348-13.479,16.349-18.277,27.226c-11.789,26.663-15.022,49.797-15.014,66.984
		c0.008,10.025,1.09,18.018,2.202,23.564c-0.816,0.096-1.654,0.207-2.536,0.378c-3.648,0.697-7.83,2.166-11.7,5.102
		c-1.942,1.453-3.774,3.277-5.376,5.48c-1.601,2.202-2.966,4.768-4.011,7.689c-0.015,0.052-0.03,0.103-0.045,0.156
		c-25.299,4.478-59.554,11.396-61.186,16.26c-2.343,7.058-7.889,72.745,43.346,125.478c-0.008,0.957-0.014,2.04-0.014,3.248
		c0,8.178,0.266,21.866,2.105,38.623c-5.368,9.936-13.279,24.29-21.176,38.052c-4.671,8.126-9.334,16.046-13.443,22.689
		c-2.054,3.307-3.966,6.31-5.657,8.831c-1.676,2.513-3.159,4.574-4.242,5.939c-0.993,1.231-1.802,2.639-2.343,4.159
		c-0.548,1.52-0.816,3.129-0.816,4.694c0,1.646,0.289,3.24,0.764,4.731c0.897,2.787,2.417,5.22,4.293,7.474
		c3.3,3.93,7.771,7.415,13.302,10.685c8.29,4.871,18.996,9.186,31.586,12.323c12.576,3.136,27.034,5.102,42.702,5.102
		c0.185,0,0.378-0.008,0.571-0.008c4.285,5.546,8.95,10.899,14.044,16.001l4.596,4.59l4.991-4.145
		c4.789-3.974,9.29-7.704,13.532-11.21l-0.638,2.209c0.112,0.03,10.426,3.017,24.498,6.014c7.029,1.49,15.007,3.003,23.149,4.13
		c8.148,1.134,16.446,1.906,24.224,1.906c4.353,0,8.534-0.238,12.479-0.83c2.966-0.445,5.798-1.09,8.475-2.024
		c1.49-0.534,2.944-1.15,4.322-1.883c3.381,1.794,7.096,2.891,11.048,3.618c4.448,0.801,9.231,1.12,14.222,1.12
		c7.77,0,16.074-0.771,24.224-1.906c12.212-1.706,24.06-4.226,32.899-6.332c8.838-2.098,14.666-3.781,14.748-3.811l-0.638-2.209
		c4.249,3.507,8.742,7.236,13.532,11.21l4.998,4.145l4.59-4.59c5.094-5.102,9.765-10.454,14.051-16.001
		c0.193,0,0.378,0.008,0.563,0.008c12.738,0,24.668-1.298,35.442-3.463c8.082-1.631,15.512-3.752,22.156-6.198
		c9.98-3.685,18.165-8.067,24.246-12.917c3.04-2.432,5.561-4.99,7.496-7.859c0.957-1.424,1.772-2.951,2.358-4.597
		c0.586-1.646,0.949-3.426,0.949-5.279C482.893,449.538,482.619,447.929,482.078,446.409z M97.64,249.535
		c3.337-5.139,5.576-10.106,6.94-14.882c1.364-4.76,1.853-9.306,1.853-13.517c0-5.442-0.793-10.344-1.505-14.718
		c-0.72-4.382-1.342-8.252-1.335-11.685c0.008-2.64,0.334-4.997,1.186-7.4c0.882-2.455,1.965-4.182,3.152-5.502
		c0.882-0.994,1.831-1.758,2.832-2.388c1.506-0.934,3.158-1.55,4.82-1.912c1.216-0.275,2.417-0.416,3.507-0.468
		c4.026,9.394,19.448,46.617,26.649,81.473c-1.758-18.944,4.07-87.205,9.913-101.218c1.083-10.291-19.545-4.285-27.857-2.417
		c-0.482-3.96-0.838-8.705-0.838-14.14c0-15.586,2.892-36.814,13.903-61.749c5.598-12.657,13.228-22.03,22.073-29.199
		c6.636-5.369,13.977-9.484,21.666-12.627c11.523-4.731,23.802-7.252,35.331-8.572c3.211-0.364,6.362-0.63,9.425-0.838
		c-2.292,9.357-2.047,17.981,0.103,20.131c4.19,4.189,16.008,2.447,26.544,1.631c10.529,0.816,22.348,2.558,26.545-1.631
		c2.15-2.15,2.388-10.774,0.096-20.124c1.847,0.118,3.715,0.26,5.613,0.437c15.126,1.416,31.883,4.79,46.705,12.45
		c7.415,3.818,14.362,8.698,20.502,14.955c6.133,6.258,11.479,13.888,15.675,23.386c11.018,24.935,13.91,46.163,13.91,61.749
		c0,5.442-0.356,10.173-0.845,14.14c-8.32-1.868-28.94-7.867-27.858,2.417c5.836,14.014,11.678,82.266,9.914,101.218
		c7.207-34.856,22.622-72.071,26.649-81.473c0.926,0.052,1.935,0.149,2.966,0.349c2.202,0.423,4.426,1.26,6.347,2.707
		c0.964,0.734,1.868,1.631,2.714,2.788c0.845,1.156,1.631,2.588,2.283,4.426c0.86,2.402,1.186,4.76,1.186,7.4
		c0.008,3.433-0.608,7.304-1.334,11.685c-0.712,4.375-1.498,9.276-1.498,14.718c-0.007,4.212,0.49,8.757,1.854,13.517
		c1.364,4.775,3.588,9.743,6.94,14.882c3.515,5.42,5.058,11.419,5.058,17.468c0,4.078-0.72,8.164-2.024,11.96
		c-1.95,5.702-5.242,10.707-9.091,14.11c-1.92,1.705-3.967,3.018-6.043,3.885c-2.091,0.868-4.19,1.32-6.354,1.328
		c-1.068,0-2.158-0.119-3.278-0.348h0.008c-4.278-0.905-7.266-2.366-9.491-4.019c-1.676-1.254-2.936-2.618-3.93-4.071
		c-1.497-2.18-2.395-4.56-2.906-6.762c-0.512-2.195-0.623-4.19-0.623-5.405c0-0.452,0.015-0.794,0.03-1.002v-0.066
		c0.022-0.238,0.03-0.423,0.045-0.512l-12.902-1.031c-0.014,0.059-0.03,0.216-0.044,0.408c-0.037,0.356-0.238,1.869-1.053,4.093
		c-1.276,3.485-3.989,8.69-10.084,14.236c-6.094,5.531-15.645,11.441-30.83,15.904c-10.759,3.174-24.053,6.377-36.168,8.764
		c-6.051,1.194-11.804,2.188-16.78,2.87c-4.96,0.69-9.187,1.06-11.901,1.052c-2.721,0.008-6.94-0.363-11.907-1.052
		c-14.941-2.047-36.815-6.881-52.949-11.634c-10.781-3.166-18.736-7.073-24.609-11.04c-8.816-5.976-13.035-12.056-15.207-16.513
		c-1.075-2.231-1.624-4.063-1.891-5.257c-0.141-0.601-0.208-1.038-0.245-1.29l-0.014-0.134c-0.015-0.192-0.03-0.341-0.037-0.4
		l-12.901,1.024c0,0.081,0.014,0.266,0.044,0.496c0.008,0.193,0.03,0.571,0.03,1.083c0,1.083-0.09,2.78-0.475,4.679
		c-0.282,1.431-0.726,2.973-1.402,4.493c-1.016,2.291-2.484,4.508-4.782,6.436c-2.306,1.913-5.487,3.634-10.292,4.65
		c-1.119,0.229-2.21,0.348-3.277,0.348c-2.877-0.008-5.68-0.801-8.416-2.336c-4.093-2.306-7.956-6.398-10.7-11.552
		c-2.765-5.138-4.404-11.27-4.397-17.395C92.584,260.954,94.126,254.954,97.64,249.535z M380.304,343.768
		c0,6.947-2.832,13.295-7.4,17.854c-4.552,4.554-10.899,7.386-17.855,7.386c-6.955,0-13.302-2.832-17.854-7.386
		c-4.553-4.559-7.4-10.907-7.392-17.854c-0.008-6.962,2.84-13.309,7.392-17.855c4.552-4.56,10.899-7.4,17.854-7.4
		c6.956,0,13.302,2.84,17.855,7.4C377.472,330.459,380.304,336.806,380.304,343.768z M202.262,346.623v-16.957l49.033,50.152
		l-8.386,8.394L202.262,346.623z M238.334,392.786l-12.479,12.479h-23.593v-49.382L238.334,392.786z M209.587,327.886
		c5.102,1.186,10.24,2.314,15.216,3.292c6.25,1.231,12.226,2.268,17.528,2.995c5.317,0.727,9.914,1.172,13.673,1.172
		c3.752,0,8.349-0.445,13.673-1.172c9.802-1.357,21.947-3.737,33.796-6.525l-47.603,47.595L209.587,327.886z M182.198,343.768
		c0,6.947-2.832,13.295-7.4,17.854c-4.545,4.554-10.892,7.386-17.847,7.386c-6.947,0-13.302-2.832-17.854-7.386
		c-4.56-4.559-7.393-10.907-7.393-17.854c0-6.962,2.833-13.309,7.393-17.855c4.552-4.56,10.907-7.4,17.854-7.4
		c6.955,0,13.302,2.84,17.847,7.4C179.366,330.459,182.198,336.806,182.198,343.768z M141.98,492.656
		c-11.329-12.354-20.272-26.219-27.33-40.648c-11.93-24.394-18.403-50.375-21.844-72.753c-0.519-3.322-0.956-6.569-1.349-9.728
		c0.192-0.356,0.385-0.704,0.564-1.053l-0.734-0.386c-1.386-11.73-1.98-22.036-2.209-30.059c1.03,0.838,2.068,1.676,3.136,2.499
		c69.92,54.379,103.583,89.34,103.583,89.34l10.855,10.218c-1.142,0.89-2.395,1.876-3.781,2.966
		C191.896,451.711,173.218,466.763,141.98,492.656z M248.878,483.342c0,0-3.484,9.432-2.869,11.381
		c0.022,0.052,0.045,0.112,0.059,0.171c-1.082,0.334-2.306,0.63-3.663,0.875c-3.3,0.6-7.296,0.898-11.678,0.89
		c-6.829,0.008-14.555-0.697-22.251-1.765c-11.552-1.609-23.03-4.048-31.572-6.08c-2.254-0.534-4.294-1.038-6.088-1.498
		c19.657-16.149,32.558-26.515,40.878-33.084c2.105-1.66,3.9-3.07,5.457-4.271l0.653,0.622l31.074,28.414V483.342z M254.981,405.266
		h-6.103h-13.872l74.725-74.726v19.976L254.981,405.266z M309.73,359.665v45.601h-45.586L309.73,359.665z M325.05,491.068
		c-6.732,1.424-14.296,2.832-21.874,3.878c-7.577,1.046-15.185,1.721-21.902,1.713c-3.812,0.008-7.34-0.215-10.366-0.668
		c-1.876-0.282-3.544-0.667-4.982-1.097c0.652-2.002-2.803-11.552-2.803-11.552v-4.345l31.075-28.414l0.66-0.622
		c1.817,1.416,3.96,3.099,6.54,5.131c8.35,6.599,20.97,16.757,39.788,32.224C336.972,488.384,331.396,489.734,325.05,491.068z
		 M420.714,368.088l-0.727,0.386c0.17,0.341,0.37,0.712,0.556,1.053c-1.253,10.218-3.122,21.443-5.888,33.114
		c-3.818,16.134-9.35,33.099-17.306,49.367c-7.051,14.429-16.001,28.294-27.323,40.648c-31.245-25.893-49.931-40.944-60.904-49.604
		c-1.379-1.09-2.625-2.077-3.767-2.966l10.855-10.218c0,0,33.663-34.96,103.584-89.34c1.06-0.83,2.106-1.661,3.137-2.499
		C422.701,346.052,422.108,356.358,420.714,368.088z" style="fill: rgb(206, 48, 49);"></path>
	<path class="st0" d="M355.049,330.17c-3.766,0-7.132,1.505-9.609,3.982c-2.469,2.477-3.982,5.835-3.989,9.617
		c0.008,3.767,1.52,7.132,3.989,9.609c2.477,2.469,5.843,3.974,9.609,3.989c3.774-0.015,7.134-1.52,9.617-3.989
		c2.469-2.477,3.982-5.842,3.982-9.609c0-3.782-1.513-7.14-3.982-9.617C362.182,331.674,358.823,330.17,355.049,330.17z" style="fill: rgb(206, 48, 49);"></path>
	<path class="st0" d="M147.334,334.151c-2.462,2.477-3.974,5.835-3.974,9.617c0,3.767,1.512,7.132,3.974,9.609
		c2.477,2.469,5.843,3.974,9.617,3.989c3.774-0.015,7.133-1.52,9.617-3.989c2.462-2.477,3.975-5.842,3.975-9.609
		c0-3.782-1.513-7.14-3.975-9.617c-2.484-2.477-5.842-3.982-9.617-3.982C153.177,330.17,149.81,331.674,147.334,334.151z" style="fill: rgb(206, 48, 49);"></path>
</g>
</svg>
