<?xml version="1.0" encoding="utf-8"?>
<!-- Generator: Adobe Illustrator 15.0.0, SVG Export Plug-In . SVG Version: 6.00 Build 0)  -->
<!DOCTYPE svg PUBLIC "-//W3C//DTD SVG 1.1//EN" "http://www.w3.org/Graphics/SVG/1.1/DTD/svg11.dtd">
<svg version="1.1" id="Layer_1" xmlns="http://www.w3.org/2000/svg" xmlns:xlink="http://www.w3.org/1999/xlink" x="0px" y="0px"
	 width="223px" height="21px" viewBox="0 0 223 21" enable-background="new 0 0 223 21" xml:space="preserve">
<path id="MIYA-JAPAN-TEE" fill="#090909" d="M0.19,20h3.48V8.36l4.89,5.07l4.89-5.07V20h3.48V0.77L8.56,9.23L0.19,0.77V20z
	 M21.55,20h3.48V1.16h-3.48V20z M34.33,20h3.48v-8.311L44.56,1.16h-4.02l-4.47,7.32L31.6,1.16h-4.02l6.75,10.529V20z M44.68,20
	l6.87-15.72h-4.32V1.16h7.8L63.01,20h-3.75l-1.44-3.54h-7.98L48.4,20H44.68z M51.1,13.34h5.49l-2.73-6.75L51.1,13.34z M77.47,4.46
	h4.5v7.44c0,3.6-2.1,5.189-4.5,5.189c-2.01,0-3.21-1.23-3.81-2.1l-2.79,1.89c0.69,1.2,2.76,3.511,6.72,3.511
	c5.04,0,7.86-3.541,7.86-8.041V1.16h-7.98V4.46z M87.73,20L94.6,4.28h-4.32V1.16h7.8L106.06,20h-3.75l-1.44-3.54h-7.98L91.45,20
	H87.73z M94.15,13.34h5.49l-2.73-6.75L94.15,13.34z M108.76,20v-8.01h-2.25v-3.3h2.25V1.16h9.33c4.17,0,6.21,2.16,6.21,5.43
	s-2.04,5.4-6.21,5.4h-5.85V20H108.76z M112.24,4.46v4.23h6.15c1.799,0,2.43-1.14,2.43-2.1c0-0.99-0.631-2.13-2.43-2.13H112.24z
	 M124.96,20l6.87-15.72h-4.32V1.16h7.801L143.29,20h-3.75l-1.44-3.54h-7.979L128.68,20H124.96z M131.38,13.34h5.49l-2.729-6.75
	L131.38,13.34z M161.109,20.391V1.16h-3.479v11.55L145.48,0.77V20h3.479V8.45L161.109,20.391z M177.4,20h3.479V4.46h5.521v-3.3
	H171.88v3.3h5.521V20z M189.641,20h14.369v-6.12h-3.48v2.82h-7.409v-4.71h7.649v-3.3h-7.649V4.46h7.409v2.79h3.48V1.16h-14.369v7.53
	h-2.25v3.3h2.25V20z M207.971,20h14.369v-6.12h-3.48v2.82h-7.409v-4.71h7.649v-3.3h-7.649V4.46h7.409v2.79h3.48V1.16h-14.369v7.53
	h-2.25v3.3h2.25V20z"/>
</svg>
