<!--?xml version="1.0" encoding="utf-8"?-->
<!-- Generator: Adobe Illustrator 18.1.1, SVG Export Plug-In . SVG Version: 6.00 Build 0)  -->

<svg version="1.1" id="_x32_" xmlns="http://www.w3.org/2000/svg" xmlns:xlink="http://www.w3.org/1999/xlink" x="0px" y="0px" viewBox="0 0 512 512" style="width: 16px; height: 16px; opacity: 1;" xml:space="preserve">
<style type="text/css">
	.st0{fill:#4B4B4B;}
</style>
<g>
	<path class="st0" d="M511.08,224.329c-0.58-0.408-32.814-23.104-32.814-23.104c-2.322-1.632-3.278-4.596-2.368-7.286
		c0,0,12.736-37.308,12.972-37.975c0.298-0.808,0.094-1.835-0.768-2.376c-7.529-4.776-61.189-25.097-127.649-27.583
		C337.55,63.568,301.301,18.558,294.446,12.872c-0.784-0.642-1.835-0.509-2.51,0c-0.565,0.447-32.108,24.093-32.108,24.093
		c-2.259,1.702-5.38,1.702-7.655,0c0,0-31.544-23.646-32.108-24.093c-0.675-0.509-1.725-0.642-2.494,0
		c-6.887,5.686-43.104,50.688-66.021,113.132c-66.46,2.486-120.121,22.807-127.665,27.575c-0.848,0.55-1.052,1.577-0.769,2.384
		c0.251,0.667,12.988,37.968,12.988,37.968c0.909,2.69-0.048,5.654-2.369,7.294c0,0-32.233,22.696-32.83,23.096
		c-0.706,0.471-1.144,1.428-0.769,2.376c3.278,8.29,34.556,56.9,86.852,97.973C68.826,388.644,71.9,445.732,74.112,454.374
		c0.25,0.981,1.16,1.491,2.023,1.468c0.706-0.016,40.124-0.612,40.124-0.612c2.839-0.048,5.365,1.788,6.196,4.501
		c0,0,11.639,37.677,11.827,38.359c0.236,0.808,1.004,1.529,2.008,1.467c8.909-0.565,64.483-15.042,119.696-52.084
		c55.245,37.041,110.802,51.519,119.712,52.084c1.004,0.07,1.772-0.659,2.008-1.467c0.204-0.682,11.827-38.351,11.827-38.351
		c0.831-2.722,3.356-4.549,6.195-4.509c0,0,39.434,0.596,40.14,0.612c0.847,0.023,1.772-0.487,2.023-1.468
		c2.212-8.642,5.271-65.722-12.893-129.688c52.312-41.088,83.572-89.698,86.867-97.98
		C512.241,225.756,511.786,224.808,511.08,224.329z M165.104,269.425c0-9.058,7.356-16.407,16.406-16.407
		c9.051,0,16.392,7.34,16.408,16.407c0,9.059-7.356,16.399-16.408,16.384C172.46,285.809,165.104,278.476,165.104,269.425z
		 M214.905,333.689c-6.384,6.415-16.768,6.415-23.183,0c-6.415-6.408-6.415-16.791,0-23.191c6.415-6.407,16.799-6.407,23.199,0
		C221.321,316.898,221.321,327.281,214.905,333.689z M214.921,228.345c-6.4,6.4-16.784,6.4-23.199,0
		c-6.415-6.407-6.415-16.791,0-23.206c6.415-6.408,16.799-6.408,23.199,0C221.321,211.554,221.321,221.938,214.921,228.345z
		 M255.986,178.528c9.066,0,16.407,7.34,16.407,16.391c0,9.066-7.34,16.415-16.407,16.415c-9.051,0-16.392-7.348-16.392-16.415
		C239.594,185.868,246.935,178.528,255.986,178.528z M255.986,360.308c-9.051,0-16.392-7.341-16.392-16.399
		c0-9.066,7.341-16.392,16.392-16.392c9.066,0,16.407,7.326,16.407,16.392C272.392,352.967,265.052,360.308,255.986,360.308z
		 M255.986,292.201c-12.564,0-22.776-10.204-22.776-22.776c0-12.587,10.211-22.79,22.776-22.79c12.595,0,22.791,10.203,22.791,22.79
		C278.776,281.998,268.581,292.201,255.986,292.201z M297.066,205.138c6.415-6.408,16.783-6.392,23.199,0.015
		c6.415,6.4,6.415,16.784,0,23.191c-6.416,6.4-16.784,6.4-23.199,0C290.666,221.938,290.666,211.554,297.066,205.138z
		 M320.265,333.689c-6.4,6.415-16.784,6.415-23.184,0c-6.415-6.408-6.415-16.791,0-23.191c6.4-6.407,16.784-6.407,23.184,0
		C326.68,316.898,326.68,327.281,320.265,333.689z M330.492,285.809c-9.066,0-16.407-7.333-16.407-16.384
		c0-9.058,7.341-16.407,16.407-16.407c9.066,0,16.408,7.34,16.408,16.407C346.9,278.484,339.558,285.824,330.492,285.809z" style="fill: rgb(255, 255, 255);"></path>
</g>
</svg>
