<!--?xml version="1.0" encoding="utf-8"?-->
<!-- Generator: Adobe Illustrator 18.1.1, SVG Export Plug-In . SVG Version: 6.00 Build 0)  -->

<svg version="1.1" id="_x32_" xmlns="http://www.w3.org/2000/svg" xmlns:xlink="http://www.w3.org/1999/xlink" x="0px" y="0px" viewBox="0 0 512 512" style="width: 32px; height: 32px; opacity: 1;" xml:space="preserve">

<g>
	<polygon class="st0" points="229.068,14.794 229.038,14.771 229.034,14.771 229.057,14.794 	" style="fill: white;"></polygon>
	<path class="st0" d="M510.206,220.622c-1.062-1.884-2.482-3.417-4.247-4.644v-0.007l-0.03-0.023
		c-0.419-0.284-2.632-1.839-5.638-3.962c-4.516-3.17-10.902-7.664-16.15-11.365c-2.228-1.563-4.217-2.954-5.802-4.075
		c0.164-0.456,0.314-0.92,0.493-1.421c1.72-5.017,4.292-12.561,6.46-18.902c1.077-3.17,2.064-6.049,2.781-8.158
		c0.359-1.054,0.658-1.914,0.867-2.534c0.105-0.299,0.194-0.538,0.254-0.71l0.045-0.157l-0.016,0.015
		c0.016-0.008,0.016-0.023,0.016-0.038v0.007l0.03-0.06h-0.015c0.539-1.533,0.808-3.072,0.808-4.65c0-2.041-0.433-4.194-1.495-6.281
		c-1.046-2.079-2.782-4.052-4.905-5.383l0.015,0.008c-0.987-0.613-1.884-1.1-2.901-1.616c-1.899-0.942-4.187-1.952-6.984-3.08
		c-9.72-3.911-25.631-9.205-45.939-13.856c-18.289-4.172-40.107-7.768-63.899-9.189c-10.827-27.612-24.002-51.3-35.561-69.178
		c-6.281-9.728-12.098-17.742-16.854-23.769c-2.377-3.021-4.486-5.541-6.296-7.582c-0.912-1.032-1.75-1.922-2.556-2.729
		c-0.808-0.816-1.54-1.525-2.438-2.266V15.01c-1.256-1.046-2.736-1.869-4.247-2.392c-1.511-0.531-3.066-0.755-4.516-0.755
		c-3.246,0.022-6.056,1.047-8.48,2.886v-0.008h-0.014c-0.105,0.09-0.733,0.561-1.66,1.256c-3.26,2.452-10.468,7.851-16.868,12.644
		c-3.201,2.4-6.191,4.65-8.375,6.288c-0.044,0.022-0.06,0.044-0.09,0.067c-0.389-0.292-0.778-0.584-1.211-0.905
		c-4.232-3.177-10.603-7.956-15.971-11.978c-2.692-2.012-5.115-3.835-6.894-5.174c-0.897-0.673-1.63-1.211-2.138-1.608
		c-0.27-0.187-0.464-0.351-0.613-0.448l-0.116-0.09c-0.012-0.008-0.023-0.008-0.034-0.015l0.011-0.007l-0.011-0.008l-0.03-0.03
		l-0.016,0.007c-2.422-1.832-5.218-2.848-8.464-2.878c-1.45-0.008-2.991,0.224-4.516,0.755c-1.514,0.516-3.014,1.36-4.277,2.422
		l0.03-0.022c-0.03,0.014-0.045,0.03-0.06,0.044c-0.868,0.726-1.6,1.413-2.378,2.221c-1.495,1.503-3.155,3.364-5.099,5.682
		c-6.774,8.06-16.793,21.602-27.56,39.538c-9.676,16.143-19.889,35.822-28.607,58.023c-29.58,1.764-56.093,6.908-76.595,12.329
		c-11.156,2.946-20.532,5.967-27.71,8.606c-3.589,1.308-6.639,2.535-9.136,3.634c-1.256,0.538-2.363,1.054-3.38,1.57
		c-1.017,0.508-1.914,0.987-2.887,1.608c-2.138,1.331-3.888,3.312-4.92,5.398c-1.046,2.086-1.495,4.232-1.495,6.266
		c0,1.578,0.27,3.133,0.808,4.65l0.016,0.053v0.007c0.03,0.068,0.074,0.224,0.164,0.472c0.823,2.377,3.858,11.282,6.685,19.574
		c1.42,4.15,2.782,8.143,3.798,11.104c0.09,0.27,0.179,0.508,0.254,0.74c-0.389,0.276-0.792,0.56-1.241,0.868
		c-4.322,3.058-10.842,7.641-16.315,11.492c-2.752,1.937-5.234,3.679-7.058,4.965c-0.912,0.643-1.66,1.166-2.183,1.533
		c-0.269,0.187-0.478,0.336-0.628,0.433l-0.135,0.098l-0.015,0.008l-0.044,0.037v0.007c-1.765,1.234-3.186,2.767-4.247,4.644
		c-1.062,1.899-1.78,4.21-1.78,6.774c-0.015,1.66,0.314,3.439,0.957,5.062c0.433,1.062,0.867,1.966,1.39,2.983
		c0.972,1.877,2.214,4.038,3.798,6.61c5.533,8.95,15.253,22.723,28.921,38.552c12.308,14.251,27.814,30.088,46.238,45.244
		c-9.765,37.594-12.263,71.862-12.263,94.525c0,6.744,0.224,12.456,0.538,16.995c0.18,2.28,0.374,4.262,0.599,5.989
		c0.239,1.75,0.448,3.155,0.852,4.726l-0.015-0.008c0.419,1.66,1.181,3.246,2.154,4.598c1.45,2.041,3.334,3.484,5.249,4.404
		c1.705,0.816,3.47,1.227,5.309,1.331v0.015c0.314,0.022,0.508,0.022,0.733,0.022h0.12c0.105,0,0.18,0,0.299,0
		c0.075,0,0.239-0.008,0.493-0.015c2.513-0.037,11.919-0.18,20.697-0.314c4.366-0.06,8.598-0.127,11.724-0.172
		c0.27,0,0.524-0.015,0.778-0.015c0.134,0.456,0.284,0.935,0.448,1.443c1.555,5.062,3.918,12.674,5.877,19.082
		c0.987,3.2,1.884,6.109,2.542,8.24c0.329,1.061,0.598,1.928,0.792,2.557c0.09,0.306,0.165,0.545,0.224,0.725l0.06,0.194
		l-0.014-0.06c0.792,2.669,2.242,4.965,4.456,6.834c1.122,0.927,2.437,1.735,3.948,2.311c1.496,0.568,3.171,0.882,4.86,0.882
		c0.299,0,0.523-0.014,0.673-0.022l0.194-0.008c1.136-0.074,2.123-0.201,3.245-0.381c2.079-0.336,4.501-0.844,7.432-1.555
		c10.184-2.468,26.214-7.402,45.445-15.456c17.318-7.275,37.131-17.115,57.26-29.96c24.988,15.955,49.543,27.276,69.357,34.813
		c10.797,4.098,20.188,7.088,27.561,9.122c3.693,1.01,6.878,1.78,9.541,2.348c1.33,0.284,2.526,0.508,3.648,0.688
		c1.106,0.18,2.109,0.307,3.23,0.381c0.404,0.03,0.703,0.03,0.882,0.03c1.675,0,3.365-0.322,4.86-0.89
		c2.258-0.868,4.082-2.228,5.443-3.769c1.376-1.555,2.348-3.297,2.931-5.278l0.015-0.015v-0.014l0.015-0.045
		c0.164-0.531,0.942-3.088,2.004-6.55c1.63-5.27,3.932-12.733,5.817-18.872c0.808-2.595,1.525-4.912,2.094-6.774
		c0.478,0.015,0.972,0.015,1.51,0.03c5.294,0.075,13.265,0.195,19.964,0.292c3.364,0.053,6.385,0.097,8.614,0.134
		c1.121,0.022,2.034,0.038,2.677,0.038c0.328,0.008,0.583,0.015,0.747,0.015l0.18,0.008c0.265,0,0.404,0,0.418,0
		c2.827-0.015,5.488-0.785,7.956-2.482c1.226-0.845,2.393-1.952,3.35-3.298c0.957-1.345,1.72-2.931,2.138-4.583
		c0.389-1.57,0.598-2.976,0.838-4.718c0.328-2.587,0.613-5.772,0.822-9.608c0.194-3.843,0.329-8.33,0.329-13.377
		c-0.015-22.67-2.513-56.946-12.292-94.547c22.91-18.842,41.318-38.732,54.672-55.301c7.283-9.025,13.055-17.055,17.302-23.463
		c2.108-3.207,3.858-5.997,5.219-8.36c0.673-1.189,1.271-2.265,1.794-3.268c0.508-1.017,0.957-1.921,1.376-2.975
		c0.643-1.622,0.972-3.395,0.972-5.07C512,224.824,511.283,222.507,510.206,220.622z M458.569,265.35
		c-12.786,14.767-29.25,31.373-48.825,46.747c-3.798,2.975-5.414,8-4.112,12.643c10.752,37.797,13.459,73.305,13.459,95.639
		c0,5.623-0.18,10.348-0.434,14.065c-3.38-0.045-7.357-0.113-11.275-0.18c-9.167-0.127-17.99-0.262-17.99-0.262
		c-0.03,0-0.075,0-0.09,0h-0.18h-0.014h-0.016c-7.895,0.015-14.849,5.16-17.197,12.704v0.008c0,0-2.766,8.988-5.562,18.042
		c-1.077,3.484-2.138,6.961-3.066,9.967c-2.408-0.598-5.234-1.368-8.405-2.318c-20.846-6.191-56.826-20.016-92.222-43.778
		c-4.007-2.692-9.286-2.692-13.294,0c-25.378,17.025-51.024,28.966-71.212,36.623c-10.079,3.836-18.828,6.61-25.408,8.427
		c-1.45,0.396-2.766,0.74-4.008,1.046c-3.32-10.827-8.614-28.009-8.629-28.009c-2.333-7.574-9.331-12.718-17.227-12.718
		l-0.374,0.007h-0.045c-1.181,0.023-9.914,0.15-18.722,0.277c-3.634,0.06-7.268,0.12-10.408,0.165
		c-0.24-3.709-0.404-8.487-0.404-14.072c-0.015-22.334,2.692-57.843,13.444-95.639c1.316-4.652-0.314-9.676-4.112-12.652
		c-24.047-18.872-43.397-39.636-57.005-56.527c-6.804-8.441-12.188-15.926-15.972-21.653c-0.838-1.271-1.585-2.43-2.258-3.5
		c2.782-1.958,6.026-4.246,9.241-6.512c7.507-5.279,14.715-10.356,14.715-10.356h0.015c4.875-3.447,7.641-8.987,7.641-14.737
		c0-1.944-0.314-3.918-0.972-5.832c0,0-3.036-8.883-6.102-17.863c-1.167-3.425-2.348-6.849-3.35-9.81
		c8.538-3.364,23.224-8.202,41.707-12.396c19.007-4.315,42.066-7.986,66.964-8.913c4.815-0.179,9.092-3.282,10.752-7.814
		c10.543-28.72,24.226-53.61,36.024-71.84c5.877-9.114,11.306-16.569,15.553-21.967c0.927-1.167,1.78-2.228,2.587-3.193
		c2.706,2.034,5.862,4.404,9.002,6.767c7.343,5.495,14.401,10.789,14.401,10.789c3.185,2.386,7.029,3.604,10.812,3.59
		c3.783,0.014,7.626-1.204,10.812-3.59c0,0,7.507-5.638,15.104-11.335c2.901-2.168,5.802-4.344,8.3-6.221
		c5.876,7.111,15.103,19.628,24.884,36.017c10.034,16.771,20.711,37.602,29.28,60.982c1.66,4.539,5.922,7.642,10.752,7.821
		c30.581,1.144,58.411,6.416,79.316,11.949c10.453,2.751,19.171,5.57,25.586,7.933c1.376,0.5,2.617,0.972,3.754,1.428
		c-1.077,3.193-2.363,6.946-3.634,10.655c-2.931,8.599-5.758,16.861-5.802,17.011c-0.658,1.914-0.972,3.896-0.972,5.84
		c0,5.742,2.766,11.282,7.627,14.73h0.03c0,0,7.672,5.413,15.432,10.872c2.976,2.101,5.952,4.187,8.524,5.996
		C480.073,238.223,471.086,250.919,458.569,265.35z" style="fill: rgb(75, 75, 75);"></path>
	<path class="st0" d="M324.281,254.471c-5.772,0-10.708,3.432-12.98,8.352h-40.9l28.921-28.921
		c5.07,1.876,10.992,0.814,15.089-3.268c5.593-5.6,5.593-14.662,0-20.255c-5.608-5.593-14.67-5.6-20.263,0
		c-4.082,4.082-5.144,10.004-3.274,15.089l-28.922,28.914v-40.9c4.936-2.258,8.375-7.208,8.375-12.973
		c0-7.918-6.415-14.326-14.326-14.326c-7.911,0-14.326,6.409-14.326,14.326c0,5.765,3.425,10.715,8.36,12.973v40.9l-28.921-28.914
		c1.869-5.085,0.807-11.006-3.275-15.089c-5.592-5.6-14.67-5.6-20.248,0c-5.608,5.593-5.608,14.655,0,20.255
		c4.082,4.082,9.989,5.144,15.073,3.268l28.922,28.921H200.7c-2.272-4.92-7.208-8.352-12.995-8.352
		c-7.896,0-14.326,6.415-14.326,14.326c0,7.903,6.43,14.318,14.326,14.318c5.787,0,10.722-3.439,12.995-8.359h40.885l-28.922,28.922
		c-5.084-1.877-10.991-0.808-15.089,3.267c-5.592,5.601-5.592,14.662,0,20.255c5.593,5.593,14.671,5.593,20.263,0
		c4.082-4.075,5.144-10.004,3.275-15.089l28.921-28.921v40.906c-4.935,2.266-8.36,7.208-8.36,12.981
		c0,7.903,6.416,14.318,14.326,14.318c7.911,0,14.326-6.415,14.326-14.318c0-5.773-3.439-10.715-8.375-12.981v-40.906l28.922,28.921
		c-1.87,5.085-0.792,11.014,3.29,15.089c5.578,5.593,14.654,5.593,20.233,0c5.608-5.593,5.608-14.662,0-20.255
		c-4.068-4.075-9.99-5.144-15.074-3.267l-28.921-28.922h40.9c2.272,4.92,7.208,8.359,12.98,8.359
		c7.911,0,14.326-6.408,14.326-14.318C338.607,260.879,332.192,254.471,324.281,254.471z" style="fill: rgb(75, 75, 75);"></path>
</g>
</svg>
